<svg width="381" height="55" viewBox="0 0 381 55" fill="none" xmlns="http://www.w3.org/2000/svg">
<circle cx="27.5" cy="27.5" r="25.5" stroke="black" stroke-width="4"/>
<path d="M21.896 38.384C20.8293 38.384 19.8267 38.2027 18.888 37.84C17.9707 37.4773 17.1707 36.944 16.488 36.24C15.8053 35.536 15.272 34.672 14.888 33.648C14.504 32.624 14.312 31.4613 14.312 30.16C14.312 28.8587 14.5253 27.696 14.952 26.672C15.3787 25.648 15.9547 24.784 16.68 24.08C17.4053 23.376 18.2373 22.8427 19.176 22.48C20.136 22.096 21.1387 21.904 22.184 21.904C23.208 21.904 24.0827 22.0747 24.808 22.416C25.5547 22.7573 26.216 23.1733 26.792 23.664L25 26.064C24.5733 25.7013 24.1467 25.424 23.72 25.232C23.3147 25.0187 22.8667 24.912 22.376 24.912C21.096 24.912 20.0613 25.392 19.272 26.352C18.4827 27.2907 18.088 28.56 18.088 30.16C18.088 31.7387 18.472 33.008 19.24 33.968C20.0293 34.9067 21.0427 35.376 22.28 35.376C22.8987 35.376 23.4747 35.248 24.008 34.992C24.5627 34.7147 25.064 34.3947 25.512 34.032L27.016 36.464C26.2693 37.104 25.448 37.584 24.552 37.904C23.6773 38.224 22.792 38.384 21.896 38.384ZM35.896 38.384C34.8293 38.384 33.8267 38.2027 32.888 37.84C31.9707 37.4773 31.1707 36.944 30.488 36.24C29.8053 35.536 29.272 34.672 28.888 33.648C28.504 32.624 28.312 31.4613 28.312 30.16C28.312 28.8587 28.5253 27.696 28.952 26.672C29.3787 25.648 29.9547 24.784 30.68 24.08C31.4053 23.376 32.2373 22.8427 33.176 22.48C34.136 22.096 35.1387 21.904 36.184 21.904C37.208 21.904 38.0827 22.0747 38.808 22.416C39.5547 22.7573 40.216 23.1733 40.792 23.664L39 26.064C38.5733 25.7013 38.1467 25.424 37.72 25.232C37.3147 25.0187 36.8667 24.912 36.376 24.912C35.096 24.912 34.0613 25.392 33.272 26.352C32.4827 27.2907 32.088 28.56 32.088 30.16C32.088 31.7387 32.472 33.008 33.24 33.968C34.0293 34.9067 35.0427 35.376 36.28 35.376C36.8987 35.376 37.4747 35.248 38.008 34.992C38.5627 34.7147 39.064 34.3947 39.512 34.032L41.016 36.464C40.2693 37.104 39.448 37.584 38.552 37.904C37.6773 38.224 36.792 38.384 35.896 38.384Z" fill="black"/>
<path d="M70.104 42L64.152 18.192H71.16L73.464 29.232C73.656 30.416 73.832 31.584 73.992 32.736C74.152 33.888 74.328 35.072 74.52 36.288H74.712C74.936 35.072 75.144 33.872 75.336 32.688C75.56 31.504 75.816 30.352 76.104 29.232L78.744 18.192H84.84L87.528 29.232C87.816 30.416 88.072 31.584 88.296 32.736C88.52 33.888 88.76 35.072 89.016 36.288H89.208C89.432 35.072 89.608 33.888 89.736 32.736C89.896 31.584 90.088 30.416 90.312 29.232L92.568 18.192H99.096L93.384 42H85.128L82.968 32.496C82.712 31.376 82.488 30.256 82.296 29.136C82.104 28.016 81.896 26.816 81.672 25.536H81.48C81.256 26.816 81.048 28.016 80.856 29.136C80.696 30.256 80.504 31.376 80.28 32.496L78.168 42H70.104ZM103.386 50.832V18.192H109.146L109.626 20.544H109.818C110.746 19.712 111.786 19.024 112.938 18.48C114.122 17.904 115.338 17.616 116.586 17.616C118.026 17.616 119.322 17.904 120.474 18.48C121.626 19.056 122.602 19.872 123.402 20.928C124.202 21.984 124.81 23.264 125.226 24.768C125.674 26.24 125.898 27.888 125.898 29.712C125.898 31.76 125.61 33.584 125.034 35.184C124.49 36.752 123.738 38.096 122.778 39.216C121.85 40.304 120.778 41.136 119.562 41.712C118.378 42.288 117.146 42.576 115.866 42.576C114.842 42.576 113.85 42.368 112.89 41.952C111.93 41.504 111.034 40.88 110.202 40.08L110.442 43.872V50.832H103.386ZM114.234 36.816C115.45 36.816 116.49 36.272 117.354 35.184C118.218 34.064 118.65 32.272 118.65 29.808C118.65 25.52 117.274 23.376 114.522 23.376C113.146 23.376 111.786 24.096 110.442 25.536V35.28C111.082 35.856 111.722 36.256 112.362 36.48C113.002 36.704 113.626 36.816 114.234 36.816ZM152.991 42.576C151.935 42.576 150.863 42.32 149.775 41.808C148.719 41.264 147.727 40.48 146.799 39.456H146.607L146.031 42H140.511V8.352H147.567V16.608L147.375 20.256C148.303 19.424 149.295 18.784 150.351 18.336C151.439 17.856 152.543 17.616 153.663 17.616C155.103 17.616 156.399 17.904 157.551 18.48C158.703 19.056 159.679 19.872 160.479 20.928C161.311 21.952 161.935 23.216 162.351 24.72C162.799 26.192 163.023 27.84 163.023 29.664C163.023 31.712 162.735 33.536 162.159 35.136C161.615 36.736 160.863 38.096 159.903 39.216C158.975 40.304 157.903 41.136 156.687 41.712C155.503 42.288 154.271 42.576 152.991 42.576ZM151.359 36.816C152.575 36.816 153.615 36.272 154.479 35.184C155.343 34.064 155.775 32.272 155.775 29.808C155.775 25.52 154.399 23.376 151.647 23.376C150.239 23.376 148.879 24.096 147.567 25.536V35.28C148.207 35.856 148.847 36.256 149.487 36.48C150.127 36.704 150.751 36.816 151.359 36.816ZM173.511 42.576C172.423 42.576 171.431 42.384 170.535 42C169.671 41.648 168.935 41.152 168.327 40.512C167.719 39.84 167.239 39.072 166.887 38.208C166.567 37.344 166.407 36.4 166.407 35.376C166.407 32.88 167.463 30.928 169.575 29.52C171.687 28.112 175.095 27.168 179.799 26.688C179.735 25.632 179.415 24.8 178.839 24.192C178.295 23.552 177.367 23.232 176.055 23.232C175.031 23.232 174.007 23.424 172.983 23.808C171.991 24.192 170.919 24.72 169.767 25.392L167.223 20.736C168.759 19.808 170.359 19.056 172.023 18.48C173.719 17.904 175.511 17.616 177.399 17.616C180.471 17.616 182.807 18.496 184.407 20.256C186.039 21.984 186.855 24.688 186.855 28.368V42H181.095L180.615 39.552H180.423C179.399 40.448 178.327 41.184 177.207 41.76C176.087 42.304 174.855 42.576 173.511 42.576ZM175.911 37.104C176.711 37.104 177.399 36.928 177.975 36.576C178.551 36.224 179.159 35.728 179.799 35.088V30.912C177.303 31.264 175.575 31.776 174.615 32.448C173.655 33.12 173.175 33.92 173.175 34.848C173.175 35.616 173.415 36.192 173.895 36.576C174.407 36.928 175.079 37.104 175.911 37.104ZM199.831 42.576C198.263 42.576 196.647 42.272 194.983 41.664C193.351 41.056 191.927 40.256 190.711 39.264L193.879 34.848C194.967 35.68 196.007 36.304 196.999 36.72C197.991 37.136 198.999 37.344 200.023 37.344C201.079 37.344 201.847 37.168 202.327 36.816C202.807 36.464 203.047 35.968 203.047 35.328C203.047 34.944 202.903 34.608 202.615 34.32C202.359 34 201.991 33.712 201.511 33.456C201.063 33.2 200.551 32.976 199.975 32.784C199.399 32.56 198.807 32.32 198.199 32.064C197.463 31.776 196.727 31.44 195.991 31.056C195.255 30.672 194.583 30.208 193.975 29.664C193.367 29.088 192.871 28.432 192.487 27.696C192.103 26.928 191.911 26.048 191.911 25.056C191.911 23.968 192.119 22.96 192.535 22.032C192.983 21.104 193.607 20.32 194.407 19.68C195.207 19.04 196.167 18.544 197.287 18.192C198.407 17.808 199.655 17.616 201.031 17.616C202.855 17.616 204.455 17.936 205.831 18.576C207.207 19.184 208.407 19.872 209.431 20.64L206.263 24.864C205.399 24.224 204.551 23.728 203.719 23.376C202.887 23.024 202.055 22.848 201.223 22.848C199.431 22.848 198.535 23.472 198.535 24.72C198.535 25.104 198.663 25.44 198.919 25.728C199.175 25.984 199.511 26.224 199.927 26.448C200.375 26.672 200.871 26.896 201.415 27.12C201.991 27.312 202.583 27.52 203.191 27.744C203.959 28.032 204.711 28.368 205.447 28.752C206.215 29.104 206.903 29.552 207.511 30.096C208.151 30.64 208.663 31.312 209.047 32.112C209.431 32.88 209.623 33.808 209.623 34.896C209.623 35.984 209.415 36.992 208.999 37.92C208.583 38.848 207.959 39.664 207.127 40.368C206.295 41.04 205.271 41.584 204.055 42C202.839 42.384 201.431 42.576 199.831 42.576ZM224.76 42.576C223.064 42.576 221.48 42.304 220.008 41.76C218.536 41.184 217.256 40.368 216.168 39.312C215.08 38.224 214.232 36.912 213.624 35.376C213.016 33.84 212.712 32.08 212.712 30.096C212.712 28.176 213.032 26.448 213.672 24.912C214.312 23.344 215.144 22.032 216.168 20.976C217.224 19.888 218.424 19.056 219.768 18.48C221.112 17.904 222.504 17.616 223.944 17.616C225.64 17.616 227.112 17.904 228.36 18.48C229.64 19.056 230.696 19.856 231.528 20.88C232.392 21.904 233.032 23.12 233.448 24.528C233.864 25.904 234.072 27.408 234.072 29.04C234.072 29.68 234.04 30.288 233.976 30.864C233.912 31.44 233.848 31.872 233.784 32.16H219.528C219.848 33.888 220.552 35.168 221.64 36C222.76 36.8 224.12 37.2 225.72 37.2C227.416 37.2 229.128 36.672 230.856 35.616L233.208 39.888C231.992 40.72 230.632 41.376 229.128 41.856C227.656 42.336 226.2 42.576 224.76 42.576ZM219.48 27.504H228.072C228.072 26.16 227.768 25.072 227.16 24.24C226.552 23.408 225.528 22.992 224.088 22.992C222.968 22.992 221.976 23.36 221.112 24.096C220.28 24.832 219.736 25.968 219.48 27.504ZM257.726 42.576C256.254 42.576 254.99 42.352 253.934 41.904C252.91 41.456 252.062 40.832 251.39 40.032C250.75 39.232 250.27 38.272 249.95 37.152C249.662 36 249.518 34.736 249.518 33.36V23.712H246.254V18.48L249.902 18.192L250.718 11.856H256.574V18.192H262.286V23.712H256.574V33.264C256.574 34.608 256.846 35.584 257.39 36.192C257.966 36.768 258.718 37.056 259.646 37.056C260.03 37.056 260.414 37.008 260.798 36.912C261.214 36.816 261.582 36.704 261.902 36.576L263.006 41.712C262.366 41.904 261.614 42.096 260.75 42.288C259.886 42.48 258.878 42.576 257.726 42.576ZM266.933 42V8.352H273.989V16.608L273.653 20.88C274.549 20.08 275.589 19.344 276.773 18.672C277.957 17.968 279.365 17.616 280.997 17.616C283.589 17.616 285.461 18.464 286.613 20.16C287.797 21.856 288.389 24.208 288.389 27.216V42H281.333V28.128C281.333 26.4 281.093 25.216 280.613 24.576C280.165 23.936 279.429 23.616 278.405 23.616C277.509 23.616 276.741 23.824 276.101 24.24C275.461 24.624 274.757 25.184 273.989 25.92V42H266.933ZM305.01 42.576C303.314 42.576 301.73 42.304 300.258 41.76C298.786 41.184 297.506 40.368 296.418 39.312C295.33 38.224 294.482 36.912 293.874 35.376C293.266 33.84 292.962 32.08 292.962 30.096C292.962 28.176 293.282 26.448 293.922 24.912C294.562 23.344 295.394 22.032 296.418 20.976C297.474 19.888 298.674 19.056 300.018 18.48C301.362 17.904 302.754 17.616 304.194 17.616C305.89 17.616 307.362 17.904 308.61 18.48C309.89 19.056 310.946 19.856 311.778 20.88C312.642 21.904 313.282 23.12 313.698 24.528C314.114 25.904 314.322 27.408 314.322 29.04C314.322 29.68 314.29 30.288 314.226 30.864C314.162 31.44 314.098 31.872 314.034 32.16H299.778C300.098 33.888 300.802 35.168 301.89 36C303.01 36.8 304.37 37.2 305.97 37.2C307.666 37.2 309.378 36.672 311.106 35.616L313.458 39.888C312.242 40.72 310.882 41.376 309.378 41.856C307.906 42.336 306.45 42.576 305.01 42.576ZM299.73 27.504H308.322C308.322 26.16 308.018 25.072 307.41 24.24C306.802 23.408 305.778 22.992 304.338 22.992C303.218 22.992 302.226 23.36 301.362 24.096C300.53 24.832 299.986 25.968 299.73 27.504ZM319.198 42V18.192H324.958L325.438 21.264H325.63C326.622 20.272 327.678 19.424 328.798 18.72C329.918 17.984 331.262 17.616 332.83 17.616C334.526 17.616 335.886 17.968 336.91 18.672C337.966 19.344 338.798 20.32 339.406 21.6C340.462 20.512 341.566 19.584 342.718 18.816C343.902 18.016 345.294 17.616 346.894 17.616C349.454 17.616 351.326 18.48 352.51 20.208C353.726 21.904 354.334 24.24 354.334 27.216V42H347.278V28.128C347.278 26.4 347.038 25.216 346.558 24.576C346.11 23.936 345.374 23.616 344.35 23.616C343.166 23.616 341.806 24.384 340.27 25.92V42H333.214V28.128C333.214 26.4 332.974 25.216 332.494 24.576C332.046 23.936 331.31 23.616 330.286 23.616C329.07 23.616 327.726 24.384 326.254 25.92V42H319.198ZM371.01 42.576C369.314 42.576 367.73 42.304 366.258 41.76C364.786 41.184 363.506 40.368 362.418 39.312C361.33 38.224 360.482 36.912 359.874 35.376C359.266 33.84 358.962 32.08 358.962 30.096C358.962 28.176 359.282 26.448 359.922 24.912C360.562 23.344 361.394 22.032 362.418 20.976C363.474 19.888 364.674 19.056 366.018 18.48C367.362 17.904 368.754 17.616 370.194 17.616C371.89 17.616 373.362 17.904 374.61 18.48C375.89 19.056 376.946 19.856 377.778 20.88C378.642 21.904 379.282 23.12 379.698 24.528C380.114 25.904 380.322 27.408 380.322 29.04C380.322 29.68 380.29 30.288 380.226 30.864C380.162 31.44 380.098 31.872 380.034 32.16H365.778C366.098 33.888 366.802 35.168 367.89 36C369.01 36.8 370.37 37.2 371.97 37.2C373.666 37.2 375.378 36.672 377.106 35.616L379.458 39.888C378.242 40.72 376.882 41.376 375.378 41.856C373.906 42.336 372.45 42.576 371.01 42.576ZM365.73 27.504H374.322C374.322 26.16 374.018 25.072 373.41 24.24C372.802 23.408 371.778 22.992 370.338 22.992C369.218 22.992 368.226 23.36 367.362 24.096C366.53 24.832 365.986 25.968 365.73 27.504Z" fill="black"/>
</svg>
